<?xml version="1.0" encoding="UTF-8"?><svg id="a" xmlns="http://www.w3.org/2000/svg" xmlns:xlink="http://www.w3.org/1999/xlink" viewBox="0 0 537.81 550.83"><defs><style>.c{fill:#fff;}.d{fill:url(#b);}.e{fill:#181715;}.f{fill:#81358a;}</style><linearGradient id="b" x1="0" y1="293.8" x2="536.9" y2="293.8" gradientTransform="matrix(1, 0, 0, 1, 0, 0)" gradientUnits="userSpaceOnUse"><stop offset="0" stop-color="#783976"/><stop offset="1" stop-color="#783976"/></linearGradient></defs><g><path class="d" d="M496.83,549.76H36.99c-.28-1.05-1.19-.88-1.96-1.09-9.36-2.57-17.53-7.1-24.6-13.9-5.29-5.09-7.48-11.7-10.43-18v-10c2.6-3.28,3.02-7.49,4.7-11.17,9.88-21.59,19.6-43.26,29.31-64.93,13.36-29.82,26.65-59.68,39.99-89.51,24.02-53.74,48.05-107.47,72.09-161.2,10.22-22.83,20.48-45.64,30.73-68.45,5.41-12.03,9.9-24.6,16.48-35.95,14.22-24.51,37.4-34.82,64.59-37.72,7,0,14.01,0,21.01,0,3.11,.38,6.28,.51,9.33,1.18,26.46,5.8,47.42,19.34,59.18,44.4,17.73,37.78,34.86,75.85,52.23,113.81,24.02,52.49,48.02,104.99,72.06,157.48,19.29,42.11,38.68,84.17,57.86,126.32,2.64,5.81,6.28,11.25,7.32,17.73,0,5.35-.02,10.69-.02,16.04-1.93,11.31-8.99,19.05-17.79,25.6-6.66,4.96-14.59,6.83-22.26,9.37Z"/><polyline class="e" points="537.81 514.77 537.34 514.72 536.88 514.79"/><path class="e" d="M536.9,498.75c.3,.03,.6,.04,.91,.03"/></g><text/><path class="c" d="M396.41,550.83l-83.93-218.5c-.97-2.53-.91-5.3,.17-7.79l16.5-37.94c3.2-7.37-2.8-15.34-11.56-15.34h-97.37c-8.76,0-14.77,7.97-11.56,15.34l16.5,37.94c1.09,2.5,1.15,5.26,.17,7.79l-83.93,218.5h255.01Z"/><circle class="f" cx="252.44" cy="448.84" r="16.46"/><circle class="f" cx="287.11" cy="402.32" r="11.19"/><circle class="c" cx="307.48" cy="218.44" r="9.18"/><circle class="f" cx="394.22" cy="53.93" r="12.8"/><circle class="f" cx="407.02" cy="16.92" r="12.8"/><circle class="f" cx="358.86" cy="16.92" r="16.92"/></svg>