<svg xmlns="http://www.w3.org/2000/svg" xmlns:xlink="http://www.w3.org/1999/xlink" width="1080" height="1080" viewBox="0 0 1080 1080">
  <defs>
    <clipPath id="clip-path">
      <rect id="Rectangle_5" data-name="Rectangle 5" width="1248" height="1248" transform="translate(-258.47 -262.61)" fill="none"/>
    </clipPath>
    <clipPath id="clip-Transparent_Solid_White">
      <rect width="1080" height="1080"/>
    </clipPath>
  </defs>
  <g id="Transparent_Solid_White" data-name="Transparent Solid White" clip-path="url(#clip-Transparent_Solid_White)">
    <g id="Route_logo" data-name="Route logo" transform="translate(174.47 178.61)" clip-path="url(#clip-path)">
      <g id="Custom_Size_34" data-name="Custom Size 34" transform="translate(39.915 40.551)">
        <g id="Logo_R" data-name="Logo R" transform="translate(0 0)">
          <path id="Path_31" data-name="Path 31" d="M272.456,895.9a14.609,14.609,0,0,1-3.06-.335,14.433,14.433,0,0,1-11.062-17.159l67.849-313.9a14.434,14.434,0,0,1,25.126-6.281l227.1,268.268,16.882,16.87a9.236,9.236,0,0,1,2.182,2.887c1.224,1.628,9.7,11.547,34.133,11.547h179.2L387.8,355.981a12.235,12.235,0,0,1-.947-1.247c-10.23-15.23-22.574-47.134-3.984-70.078,16.708-20.611,37.146-23.706,47.9-22.182h324.79c7.586-.4,75.493-2.24,113.679,58.335C906.6,380.056,887.476,433.1,884.89,439.615c-2.078,5.958-17.6,45.6-74.57,86.9h0c-4.792,3.706-24.4,18.371-113.748,85.181a14.434,14.434,0,1,1-17.32-23.094c30.461-22.77,109.834-82.121,113.621-85.02.162-.139.323-.254.5-.381,51.083-37.042,63.681-71.394,64.235-72.976a8.954,8.954,0,0,1,.462-1.236c.693-1.709,17.47-44.005-13.256-92.733-30.253-47.966-85.539-45.033-87.872-44.894H429.551a8.5,8.5,0,0,1-2.794-.266c-1.882-.2-11.489-.543-21.466,11.755-8.083,10.011,1.478,29.444,5.138,35.218L852.893,862.888a14.445,14.445,0,0,1-11.039,23.775H631.7c-37.308,0-53.185-17.459-57.734-23.844L557.583,846.48c-.277-.277-.554-.577-.808-.878L348.2,599.227,286.543,884.55a14.434,14.434,0,0,1-14.087,11.35ZM426.583,291.03Z" transform="translate(-258.005 -262.141)" fill="#fff"/>
          <path id="Path_30" data-name="Path 30" d="M428.361,690.48l24.248,29.1-20.784,97.7a14.433,14.433,0,1,1-28.234-6Z" transform="translate(-235.534 -195.883)" fill="#fff"/>
        </g>
      </g>
    </g>
  </g>
</svg>
